<svg width="24" height="25" viewBox="0 0 24 25" fill="none" xmlns="http://www.w3.org/2000/svg">
<path d="M22 9.4541H2M2 8.2541V16.6541C2 18.3343 2 19.1743 2.32698 19.8161C2.6146 20.3806 3.07354 20.8395 3.63803 21.1271C4.27976 21.4541 5.11984 21.4541 6.8 21.4541H17.2C18.8802 21.4541 19.7202 21.4541 20.362 21.1271C20.9265 20.8395 21.3854 20.3806 21.673 19.8161C22 19.1743 22 18.3343 22 16.6541V8.2541C22 6.57394 22 5.73387 21.673 5.09213C21.3854 4.52764 20.9265 4.0687 20.362 3.78108C19.7202 3.4541 18.8802 3.4541 17.2 3.4541H6.8C5.11984 3.4541 4.27976 3.4541 3.63803 3.78108C3.07354 4.0687 2.6146 4.52764 2.32698 5.09213C2 5.73386 2 6.57394 2 8.2541Z" stroke="#70FF00" stroke-width="2" stroke-linecap="round" stroke-linejoin="round"/>
</svg>
